<svg xmlns="http://www.w3.org/2000/svg" width="1000" height="600" viewBox="0 0 1000 600">
<style>text { font-family: Arial, sans-serif; font-size: 14px; }</style>
<rect x="0" y="0" width="1000" height="600" fill="white" stroke="none"/>
<path d="M80,50 V520 H960" stroke="black" fill="none" stroke-width="2"/>
<path d="M80.00,430.52 L94.94,326.80 L109.40,313.95 L124.34,356.03 L139.28,444.07 L152.77,387.40 L167.71,313.85 L182.17,394.50 L197.11,246.02 L211.57,225.25 L226.51,275.32 L241.45,486.29 L255.90,220.44 L270.84,208.11 L285.30,260.51 L300.24,412.86 L315.18,302.56 L328.67,238.84 L343.61,478.51 L358.07,320.78 L373.01,372.99 L387.47,88.39 L402.41,357.35 L417.35,400.83 L431.81,155.46 L446.75,386.64 L461.20,520.00 L476.14,207.83 L491.08,189.73 L504.58,237.62 L519.52,217.17 L533.98,319.58 L548.92,218.03 L563.37,362.33 L578.31,411.11 L593.25,463.19 L607.71,210.20 L622.65,219.16 L637.11,322.46 L652.05,316.51 L666.99,320.45 L680.96,361.81 L695.90,354.41 L710.36,372.73 L725.30,287.30 L739.76,342.55 L754.70,160.64 L769.64,336.75 L784.10,363.36 L799.04,118.10 L813.49,138.18 L828.43,449.06 L843.37,107.63 L856.87,411.20 L871.81,50.00 L886.27,377.95 L901.20,393.01 L915.66,354.31 L930.60,266.66 L945.54,222.21 L960.00,328.93" fill="none" stroke="#1f77b4" stroke-width="2"/>
<text x="500.0" y="35" text-anchor="middle">Average Difference Between Close and Open Prices (Monthly)</text>
<text x="500.0" y="580" text-anchor="middle">Month</text>
<text x="20" y="285.0" text-anchor="middle" transform="rotate(-90 20,285.0)">Average Close - Open ($)</text>
<circle cx="80.00" cy="430.52" r="4" fill="#1f77b4"/>
<circle cx="94.94" cy="326.80" r="4" fill="#1f77b4"/>
<circle cx="109.40" cy="313.95" r="4" fill="#1f77b4"/>
<circle cx="124.34" cy="356.03" r="4" fill="#1f77b4"/>
<circle cx="139.28" cy="444.07" r="4" fill="#1f77b4"/>
<circle cx="152.77" cy="387.40" r="4" fill="#1f77b4"/>
<circle cx="167.71" cy="313.85" r="4" fill="#1f77b4"/>
<circle cx="182.17" cy="394.50" r="4" fill="#1f77b4"/>
<circle cx="197.11" cy="246.02" r="4" fill="#1f77b4"/>
<circle cx="211.57" cy="225.25" r="4" fill="#1f77b4"/>
<circle cx="226.51" cy="275.32" r="4" fill="#1f77b4"/>
<circle cx="241.45" cy="486.29" r="4" fill="#1f77b4"/>
<circle cx="255.90" cy="220.44" r="4" fill="#1f77b4"/>
<circle cx="270.84" cy="208.11" r="4" fill="#1f77b4"/>
<circle cx="285.30" cy="260.51" r="4" fill="#1f77b4"/>
<circle cx="300.24" cy="412.86" r="4" fill="#1f77b4"/>
<circle cx="315.18" cy="302.56" r="4" fill="#1f77b4"/>
<circle cx="328.67" cy="238.84" r="4" fill="#1f77b4"/>
<circle cx="343.61" cy="478.51" r="4" fill="#1f77b4"/>
<circle cx="358.07" cy="320.78" r="4" fill="#1f77b4"/>
<circle cx="373.01" cy="372.99" r="4" fill="#1f77b4"/>
<circle cx="387.47" cy="88.39" r="4" fill="#1f77b4"/>
<circle cx="402.41" cy="357.35" r="4" fill="#1f77b4"/>
<circle cx="417.35" cy="400.83" r="4" fill="#1f77b4"/>
<circle cx="431.81" cy="155.46" r="4" fill="#1f77b4"/>
<circle cx="446.75" cy="386.64" r="4" fill="#1f77b4"/>
<circle cx="461.20" cy="520.00" r="4" fill="#1f77b4"/>
<circle cx="476.14" cy="207.83" r="4" fill="#1f77b4"/>
<circle cx="491.08" cy="189.73" r="4" fill="#1f77b4"/>
<circle cx="504.58" cy="237.62" r="4" fill="#1f77b4"/>
<circle cx="519.52" cy="217.17" r="4" fill="#1f77b4"/>
<circle cx="533.98" cy="319.58" r="4" fill="#1f77b4"/>
<circle cx="548.92" cy="218.03" r="4" fill="#1f77b4"/>
<circle cx="563.37" cy="362.33" r="4" fill="#1f77b4"/>
<circle cx="578.31" cy="411.11" r="4" fill="#1f77b4"/>
<circle cx="593.25" cy="463.19" r="4" fill="#1f77b4"/>
<circle cx="607.71" cy="210.20" r="4" fill="#1f77b4"/>
<circle cx="622.65" cy="219.16" r="4" fill="#1f77b4"/>
<circle cx="637.11" cy="322.46" r="4" fill="#1f77b4"/>
<circle cx="652.05" cy="316.51" r="4" fill="#1f77b4"/>
<circle cx="666.99" cy="320.45" r="4" fill="#1f77b4"/>
<circle cx="680.96" cy="361.81" r="4" fill="#1f77b4"/>
<circle cx="695.90" cy="354.41" r="4" fill="#1f77b4"/>
<circle cx="710.36" cy="372.73" r="4" fill="#1f77b4"/>
<circle cx="725.30" cy="287.30" r="4" fill="#1f77b4"/>
<circle cx="739.76" cy="342.55" r="4" fill="#1f77b4"/>
<circle cx="754.70" cy="160.64" r="4" fill="#1f77b4"/>
<circle cx="769.64" cy="336.75" r="4" fill="#1f77b4"/>
<circle cx="784.10" cy="363.36" r="4" fill="#1f77b4"/>
<circle cx="799.04" cy="118.10" r="4" fill="#1f77b4"/>
<circle cx="813.49" cy="138.18" r="4" fill="#1f77b4"/>
<circle cx="828.43" cy="449.06" r="4" fill="#1f77b4"/>
<circle cx="843.37" cy="107.63" r="4" fill="#1f77b4"/>
<circle cx="856.87" cy="411.20" r="4" fill="#1f77b4"/>
<circle cx="871.81" cy="50.00" r="4" fill="#1f77b4"/>
<circle cx="886.27" cy="377.95" r="4" fill="#1f77b4"/>
<circle cx="901.20" cy="393.01" r="4" fill="#1f77b4"/>
<circle cx="915.66" cy="354.31" r="4" fill="#1f77b4"/>
<circle cx="930.60" cy="266.66" r="4" fill="#1f77b4"/>
<circle cx="945.54" cy="222.21" r="4" fill="#1f77b4"/>
<circle cx="960.00" cy="328.93" r="4" fill="#1f77b4"/>
<line x1="75" y1="520.00" x2="80" y2="520.00" stroke="black"/>
<text x="70" y="525.00" text-anchor="end">-0.86</text>
<line x1="75" y1="426.00" x2="80" y2="426.00" stroke="black"/>
<text x="70" y="431.00" text-anchor="end">-0.40</text>
<line x1="75" y1="332.00" x2="80" y2="332.00" stroke="black"/>
<text x="70" y="337.00" text-anchor="end">0.05</text>
<line x1="75" y1="238.00" x2="80" y2="238.00" stroke="black"/>
<text x="70" y="243.00" text-anchor="end">0.51</text>
<line x1="75" y1="144.00" x2="80" y2="144.00" stroke="black"/>
<text x="70" y="149.00" text-anchor="end">0.96</text>
<line x1="75" y1="50.00" x2="80" y2="50.00" stroke="black"/>
<text x="70" y="55.00" text-anchor="end">1.42</text>
<line x1="80.00" y1="520" x2="80.00" y2="525" stroke="black"/>
<text x="80.00" y="545" text-anchor="middle">Oct 2020</text>
<line x1="124.34" y1="520" x2="124.34" y2="525" stroke="black"/>
<text x="124.34" y="545" text-anchor="middle">Jan 2021</text>
<line x1="167.71" y1="520" x2="167.71" y2="525" stroke="black"/>
<text x="167.71" y="545" text-anchor="middle">Apr 2021</text>
<line x1="211.57" y1="520" x2="211.57" y2="525" stroke="black"/>
<text x="211.57" y="545" text-anchor="middle">Jul 2021</text>
<line x1="255.90" y1="520" x2="255.90" y2="525" stroke="black"/>
<text x="255.90" y="545" text-anchor="middle">Oct 2021</text>
<line x1="300.24" y1="520" x2="300.24" y2="525" stroke="black"/>
<text x="300.24" y="545" text-anchor="middle">Jan 2022</text>
<line x1="343.61" y1="520" x2="343.61" y2="525" stroke="black"/>
<text x="343.61" y="545" text-anchor="middle">Apr 2022</text>
<line x1="387.47" y1="520" x2="387.47" y2="525" stroke="black"/>
<text x="387.47" y="545" text-anchor="middle">Jul 2022</text>
<line x1="431.81" y1="520" x2="431.81" y2="525" stroke="black"/>
<text x="431.81" y="545" text-anchor="middle">Oct 2022</text>
<line x1="476.14" y1="520" x2="476.14" y2="525" stroke="black"/>
<text x="476.14" y="545" text-anchor="middle">Jan 2023</text>
<line x1="519.52" y1="520" x2="519.52" y2="525" stroke="black"/>
<text x="519.52" y="545" text-anchor="middle">Apr 2023</text>
<line x1="563.37" y1="520" x2="563.37" y2="525" stroke="black"/>
<text x="563.37" y="545" text-anchor="middle">Jul 2023</text>
<line x1="607.71" y1="520" x2="607.71" y2="525" stroke="black"/>
<text x="607.71" y="545" text-anchor="middle">Oct 2023</text>
<line x1="652.05" y1="520" x2="652.05" y2="525" stroke="black"/>
<text x="652.05" y="545" text-anchor="middle">Jan 2024</text>
<line x1="695.90" y1="520" x2="695.90" y2="525" stroke="black"/>
<text x="695.90" y="545" text-anchor="middle">Apr 2024</text>
<line x1="739.76" y1="520" x2="739.76" y2="525" stroke="black"/>
<text x="739.76" y="545" text-anchor="middle">Jul 2024</text>
<line x1="784.10" y1="520" x2="784.10" y2="525" stroke="black"/>
<text x="784.10" y="545" text-anchor="middle">Oct 2024</text>
<line x1="828.43" y1="520" x2="828.43" y2="525" stroke="black"/>
<text x="828.43" y="545" text-anchor="middle">Jan 2025</text>
<line x1="871.81" y1="520" x2="871.81" y2="525" stroke="black"/>
<text x="871.81" y="545" text-anchor="middle">Apr 2025</text>
<line x1="915.66" y1="520" x2="915.66" y2="525" stroke="black"/>
<text x="915.66" y="545" text-anchor="middle">Jul 2025</text>
<line x1="960.00" y1="520" x2="960.00" y2="525" stroke="black"/>
<text x="960.00" y="545" text-anchor="middle">Oct 2025</text>
</svg>